<svg width="94" height="72" viewBox="0 0 94 72" fill="none" xmlns="http://www.w3.org/2000/svg">
<g id="ticket 1" clip-path="url(#clip0)">
<g id="Group">
<path id="Vector" fill-rule="evenodd" clip-rule="evenodd" d="M93.5271 25.0887C93.05 24.2064 92.2593 23.563 91.3007 23.2777L13.6323 0.155658C13.2857 0.0525714 12.9274 0 12.568 0C10.9229 0 9.44763 1.10698 8.9799 2.69166L0.154605 32.5883C-0.403478 34.4791 0.596154 36.4654 2.39899 37.162V68.1799C2.39899 70.2526 4.07825 71.9392 6.14238 71.9392H87.1517C89.2158 71.9392 90.8951 70.2526 90.8951 68.1799V37.88L93.8259 27.9508C94.1106 26.9876 94.0044 25.9712 93.5271 25.0887ZM88.1641 68.1799C88.1641 68.7403 87.71 69.1963 87.1519 69.1963H66.3026V67.5602C66.3026 66.803 65.6912 66.1888 64.937 66.1888C64.1827 66.1888 63.5714 66.803 63.5714 67.5602V69.1963H6.14238C5.5843 69.1963 5.13023 68.7403 5.13023 68.1799V37.9908L17.7567 41.7497L16.8729 42.6372L10.6983 41.9579L9.41963 42.9977L14.3331 45.1876L12.6165 46.9118L10.7857 46.7319C10.7545 46.7289 10.7242 46.7408 10.7024 46.7636L10.0615 47.4073C10.02 47.4459 10.0168 47.5113 10.0553 47.5538C10.0649 47.5643 10.0765 47.5726 10.0892 47.578L11.6824 48.3063C11.6877 48.568 11.7892 48.8279 11.9877 49.0274C12.1866 49.2267 12.4454 49.3289 12.7057 49.3342L13.4327 50.9321C13.4562 50.9844 13.5171 51.0075 13.5688 50.9844C13.58 50.9792 13.5904 50.9726 13.5991 50.9639L14.24 50.3161C14.2625 50.2944 14.2739 50.264 14.2717 50.2327L14.0923 48.3979L15.8105 46.6722L17.9914 51.6068L19.0267 50.3225L18.3505 44.1216L20.0359 42.4288L22.8732 43.2734V44.0231C22.8732 44.2756 23.0772 44.4802 23.3284 44.4802H26.9271L37.2773 47.5614H23.3284C23.0772 47.5614 22.8732 47.7662 22.8732 48.0185V50.9294C22.8732 51.1819 23.0772 51.3865 23.3284 51.3865H50.1266L63.6139 55.4016C63.5871 55.5088 63.5711 55.6206 63.5711 55.7362V61.6482C63.5711 62.4055 64.1825 63.0196 64.9367 63.0196C65.691 63.0196 66.3024 62.4055 66.3024 61.6482V56.2018L80.3484 60.3833C80.6951 60.4866 81.0535 60.539 81.4129 60.539C83.0578 60.539 84.5331 59.4322 85.0013 57.8478L88.1641 47.133V68.1799ZM91.2076 27.171L82.383 57.0679C82.2562 57.4967 81.8574 57.7961 81.4131 57.7961C81.3164 57.7961 81.2195 57.7817 81.1248 57.7536L61.1353 51.8027L61.5983 50.2343C61.8124 49.5081 61.4003 48.7449 60.6769 48.5296C59.9543 48.3147 59.1939 48.7282 58.9795 49.4546L58.5165 51.0233L3.45621 34.6318C2.92112 34.4724 2.61453 33.9056 2.7734 33.3682L11.5982 3.47132C11.7248 3.04252 12.1235 2.74286 12.5678 2.74286C12.6645 2.74286 12.7617 2.75726 12.8562 2.78538L67.9165 19.1771L67.3448 21.1138C67.1306 21.8402 67.5428 22.6034 68.2661 22.8185C68.3956 22.8571 68.5263 22.8754 68.6549 22.8754C69.2439 22.8754 69.7876 22.4896 69.9636 21.8935L70.5353 19.9568L90.5245 25.9076C90.784 25.9847 90.998 26.1588 91.1268 26.3975C91.2558 26.6356 91.2845 26.9106 91.2076 27.171Z" fill="#ECB84C"/>
<path id="Vector_2" fill-rule="evenodd" clip-rule="evenodd" d="M64.0231 37.2148C63.3021 36.9993 62.5401 37.4132 62.3257 38.1399L60.6528 43.808C60.4386 44.5341 60.851 45.2976 61.5741 45.5127C61.7034 45.5513 61.8343 45.5696 61.9629 45.5696C62.5519 45.5696 63.0956 45.1837 63.2716 44.5874L64.9447 38.9193C65.1586 38.1931 64.746 37.4299 64.0231 37.2148Z" fill="#ECB84C"/>
<path id="Vector_3" fill-rule="evenodd" clip-rule="evenodd" d="M67.3693 25.8784C66.648 25.6633 65.8862 26.077 65.6718 26.8037L63.9987 32.4718C63.7846 33.1979 64.197 33.9611 64.9201 34.1762C65.0493 34.2149 65.18 34.2331 65.3088 34.2331C65.8979 34.2331 66.4416 33.8473 66.6175 33.2512L68.2906 27.5831C68.5048 26.8569 68.0924 26.0937 67.3693 25.8784Z" fill="#ECB84C"/>
<g id="fly">
<path id="Vector_4" fill-rule="evenodd" clip-rule="evenodd" d="M13.358 15.0531L14.6794 16.2057C14.6102 16.4581 14.6341 16.736 14.7682 16.984C14.9023 17.232 15.1214 17.4041 15.3698 17.4832L15.6147 19.2224C15.6224 19.2793 15.6741 19.3193 15.7303 19.3116C15.7423 19.3097 15.7542 19.3063 15.7651 19.3006L16.5629 18.8624C16.5906 18.848 16.6102 18.8222 16.6168 18.7913L16.9641 16.9808L19.0999 15.8172L19.7944 21.1705L21.1504 20.2345L22.257 14.0963L24.6027 12.8179C25.1098 12.5417 25.2978 11.9045 25.0226 11.3952C24.7475 10.886 24.1129 10.6969 23.6058 10.9733L21.2601 12.2519L15.5323 9.8382L14.0121 10.4702L18.1033 13.9724L15.9697 15.1356L14.2652 14.4403C14.2361 14.4286 14.2038 14.4313 14.1764 14.4469L13.3798 14.8807C13.3291 14.9061 13.3077 14.9678 13.3325 15.0195C13.3384 15.0325 13.3473 15.0439 13.358 15.0531Z" fill="#ECB84C"/>
</g>
<path id="Vector_5" fill-rule="evenodd" clip-rule="evenodd" d="M55.8231 42.0841L8.74226 28.0679C8.50214 27.9968 8.24791 28.1341 8.17644 28.3764L7.35252 31.1673C7.31815 31.2834 7.33135 31.4087 7.38893 31.5154C7.44652 31.6219 7.54393 31.7012 7.65978 31.7355L54.7408 45.7515C54.7831 45.7643 54.8268 45.7705 54.8701 45.7705C54.9452 45.7705 55.0198 45.7517 55.0872 45.7152C55.1933 45.6573 55.2723 45.5595 55.3066 45.4434L56.1303 42.6525C56.2016 42.41 56.0641 42.1559 55.8231 42.0841Z" fill="#ECB84C"/>
<path id="Vector_6" fill-rule="evenodd" clip-rule="evenodd" d="M57.7776 35.4624L10.6966 21.4462C10.581 21.4119 10.4563 21.4249 10.3502 21.4828C10.2441 21.5406 10.1652 21.6384 10.131 21.7545L9.30711 24.5458C9.23564 24.7879 9.37311 25.0423 9.61414 25.1138L56.6952 39.1296C56.7377 39.1424 56.7812 39.1486 56.8244 39.1486C56.8996 39.1486 56.9742 39.1298 57.0416 39.0933C57.1476 39.0354 57.2266 38.9376 57.261 38.8215L58.0847 36.0306C58.1562 35.7886 58.0187 35.5342 57.7776 35.4624Z" fill="#ECB84C"/>
<path id="Vector_7" fill-rule="evenodd" clip-rule="evenodd" d="M59.7319 28.8407L26.0565 18.8155C25.8157 18.744 25.5621 18.8816 25.4906 19.1241L24.6667 21.915C24.6324 22.0311 24.6456 22.1563 24.7031 22.2629C24.7607 22.3694 24.8581 22.4487 24.974 22.483L58.6501 32.5083C58.6927 32.5211 58.7361 32.5273 58.7794 32.5273C58.8545 32.5273 58.9292 32.5086 58.9965 32.472C59.1026 32.4142 59.1816 32.3161 59.2159 32.2L60.0392 29.4089C60.1104 29.1669 59.9729 28.9127 59.7319 28.8407Z" fill="#ECB84C"/>
<path id="Vector_8" fill-rule="evenodd" clip-rule="evenodd" d="M60.7335 25.9053C60.9297 25.9053 61.1111 25.7767 61.1696 25.578L61.9937 22.7872C62.0281 22.6708 62.0151 22.5456 61.9576 22.4391C61.9 22.3325 61.8026 22.2532 61.6869 22.2187L28.0108 12.1936C27.7702 12.122 27.5167 12.2599 27.445 12.5021L26.6211 15.293C26.5867 15.4091 26.5999 15.5344 26.6575 15.6409C26.7151 15.7474 26.8125 15.8267 26.9281 15.861L60.604 25.8861C60.6472 25.8994 60.6907 25.9053 60.7335 25.9053Z" fill="#ECB84C"/>
<path id="Vector_9" fill-rule="evenodd" clip-rule="evenodd" d="M58.453 61.3956H9.34717C9.09567 61.3956 8.89197 61.6004 8.89197 61.8528V64.7636C8.89197 65.0162 9.09567 65.2208 9.34717 65.2208H58.453C58.7042 65.2208 58.9082 65.0162 58.9082 64.7636V61.8528C58.9082 61.6002 58.7042 61.3956 58.453 61.3956Z" fill="#ECB84C"/>
<path id="Vector_10" fill-rule="evenodd" clip-rule="evenodd" d="M58.453 54.4891L9.34717 54.4889C9.22654 54.4889 9.11069 54.5371 9.02534 54.6228C8.93999 54.7085 8.89197 54.8249 8.89197 54.946V57.8571C8.89197 58.1095 9.09567 58.3143 9.34717 58.3143H58.453C58.7042 58.3143 58.9082 58.1095 58.9082 57.8571V54.9463C58.9082 54.6939 58.7042 54.4891 58.453 54.4891Z" fill="#ECB04C"/>
</g>
</g>
<defs>
<clipPath id="clip0">
<rect width="94" height="72" fill="white"/>
</clipPath>
</defs>
</svg>
